<svg width="42" height="42" viewBox="0 0 42 42" fill="none" xmlns="http://www.w3.org/2000/svg">
<path d="M32.229 20.9482H38.0617" stroke="#55C0EE" stroke-width="1.20721" stroke-linecap="round"/>
<path fill-rule="evenodd" clip-rule="evenodd" d="M8.38411 33.6048C1.39442 26.6552 1.39442 15.3879 8.38411 8.43842C15.3737 1.48895 26.7061 1.48895 33.6958 8.43842C40.6854 15.3879 40.6854 26.6552 33.6958 33.6048C26.7061 40.5543 15.3737 40.5543 8.38411 33.6048Z" fill="#DCEEF9"/>
<path d="M9.88468 37.2197C9.35371 36.8575 8.83664 36.4663 8.33569 36.0466" stroke="#55C0EE" stroke-width="0.931672" stroke-linecap="round" stroke-linejoin="round"/>
<path d="M6.27521 34.0464C-0.61488 26.3397 -0.345605 14.531 7.08303 7.14487C14.7912 -0.518994 27.2885 -0.518994 34.9967 7.14487C42.7047 14.8088 42.7047 27.2343 34.9967 34.8981C29.0432 40.8174 20.2329 42.1649 12.9787 38.9405" stroke="#55C0EE" stroke-width="0.931672" stroke-linecap="round"/>
<mask id="mask0_115_2895" style="mask-type:alpha" maskUnits="userSpaceOnUse" x="1" y="1" width="41" height="40">
<path fill-rule="evenodd" clip-rule="evenodd" d="M1 40.9464H41.0799V1.09668H1V40.9464Z" fill="white"/>
</mask>
<g mask="url(#mask0_115_2895)">
<path fill-rule="evenodd" clip-rule="evenodd" d="M12.0972 26.0613H29.6008V16.7795H12.0972V26.0613Z" fill="#519DD6"/>
<path fill-rule="evenodd" clip-rule="evenodd" d="M19.0987 29.2519C19.0182 29.2519 18.9529 29.1869 18.9529 29.1068V28.0916C18.9529 28.0115 19.0182 27.9465 19.0987 27.9465C19.1794 27.9465 19.2446 28.0115 19.2446 28.0916V29.1068C19.2446 29.1869 19.1794 29.2519 19.0987 29.2519Z" fill="#254F9D"/>
<path fill-rule="evenodd" clip-rule="evenodd" d="M22.5995 29.2519C22.5188 29.2519 22.4536 29.1869 22.4536 29.1068V28.0916C22.4536 28.0115 22.5188 27.9465 22.5995 27.9465C22.68 27.9465 22.7453 28.0115 22.7453 28.0916V29.1068C22.7453 29.1869 22.68 29.2519 22.5995 29.2519Z" fill="#254F9D"/>
<path fill-rule="evenodd" clip-rule="evenodd" d="M17.9318 29.8321C17.8514 29.8321 17.786 29.8972 17.786 29.9771V30.5572C17.786 30.6371 17.8514 30.7022 17.9318 30.7022H23.7664C23.8469 30.7022 23.9123 30.6371 23.9123 30.5572V29.9771C23.9123 29.8972 23.8469 29.8321 23.7664 29.8321H17.9318ZM23.7663 30.9922H17.9317C17.6904 30.9922 17.4941 30.7971 17.4941 30.5572V29.9771C17.4941 29.7372 17.6904 29.542 17.9317 29.542H23.7663C24.0076 29.542 24.2039 29.7372 24.2039 29.9771V30.5572C24.2039 30.7971 24.0076 30.9922 23.7663 30.9922Z" fill="#254F9D"/>
<path fill-rule="evenodd" clip-rule="evenodd" d="M29.6007 26.2063H12.097C12.0164 26.2063 11.9512 26.1414 11.9512 26.0613C11.9512 25.9811 12.0164 25.9163 12.097 25.9163H29.6007C29.6814 25.9163 29.7466 25.9811 29.7466 26.0613C29.7466 26.1414 29.6814 26.2063 29.6007 26.2063Z" fill="#254F9D"/>
<path fill-rule="evenodd" clip-rule="evenodd" d="M15.0145 16.9246H12.0972C12.0165 16.9246 11.9514 16.8597 11.9514 16.7795C11.9514 16.6994 12.0165 16.6345 12.0972 16.6345H15.0145C15.0952 16.6345 15.1604 16.6994 15.1604 16.7795C15.1604 16.8597 15.0952 16.9246 15.0145 16.9246Z" fill="#254F9D"/>
<path fill-rule="evenodd" clip-rule="evenodd" d="M29.6006 16.9246H26.6835C26.6028 16.9246 26.5376 16.8597 26.5376 16.7795C26.5376 16.6994 26.6028 16.6345 26.6835 16.6345H29.6006C29.6812 16.6345 29.7466 16.6994 29.7466 16.7795C29.7466 16.8597 29.6812 16.9246 29.6006 16.9246Z" fill="#254F9D"/>
<path fill-rule="evenodd" clip-rule="evenodd" d="M12.5348 29.6143H12.243C12.1624 29.6143 12.0972 29.5494 12.0972 29.4692C12.0972 29.3891 12.1624 29.3242 12.243 29.3242H12.5348C12.6154 29.3242 12.6806 29.3891 12.6806 29.4692C12.6806 29.5494 12.6154 29.6143 12.5348 29.6143Z" fill="#254F9D"/>
<path fill-rule="evenodd" clip-rule="evenodd" d="M16.1814 29.6143H13.1183C13.0376 29.6143 12.9724 29.5494 12.9724 29.4692C12.9724 29.3891 13.0376 29.3242 13.1183 29.3242H16.1814C16.262 29.3242 16.3272 29.3891 16.3272 29.4692C16.3272 29.5494 16.262 29.6143 16.1814 29.6143Z" fill="#254F9D"/>
<path fill-rule="evenodd" clip-rule="evenodd" d="M29.4552 29.6143H29.1634C29.0828 29.6143 29.0176 29.5494 29.0176 29.4692C29.0176 29.3891 29.0828 29.3242 29.1634 29.3242H29.4552C29.5357 29.3242 29.601 29.3891 29.601 29.4692C29.601 29.5494 29.5357 29.6143 29.4552 29.6143Z" fill="#254F9D"/>
<path fill-rule="evenodd" clip-rule="evenodd" d="M28.58 29.6143H25.517C25.4362 29.6143 25.3711 29.5494 25.3711 29.4692C25.3711 29.3891 25.4362 29.3242 25.517 29.3242H28.58C28.6606 29.3242 28.7259 29.3891 28.7259 29.4692C28.7259 29.5494 28.6606 29.6143 28.58 29.6143Z" fill="#254F9D"/>
<path fill-rule="evenodd" clip-rule="evenodd" d="M28.1422 27.6566H13.5558C12.6712 27.6566 11.9514 26.9409 11.9514 26.0613V16.7796C11.9514 15.9001 12.6712 15.1843 13.5558 15.1843H15.0145C15.0952 15.1843 15.1604 15.2492 15.1604 15.3294C15.1604 15.4095 15.0952 15.4744 15.0145 15.4744H13.5558C12.8319 15.4744 12.2431 16.0599 12.2431 16.7796V26.0613C12.2431 26.781 12.8319 27.3666 13.5558 27.3666H28.1422C28.8662 27.3666 29.4551 26.781 29.4551 26.0613V16.7796C29.4551 16.0599 28.8662 15.4744 28.1422 15.4744H26.6836C26.603 15.4744 26.5378 15.4095 26.5378 15.3294C26.5378 15.2492 26.603 15.1843 26.6836 15.1843H28.1422C29.0269 15.1843 29.7468 15.9001 29.7468 16.7796V26.0613C29.7468 26.9409 29.0269 27.6566 28.1422 27.6566Z" fill="#254F9D"/>
<path fill-rule="evenodd" clip-rule="evenodd" d="M28.7259 19.2449C28.6453 19.2449 28.5801 19.1801 28.5801 19.0999V17.7947H27.2672C27.1866 17.7947 27.1213 17.7298 27.1213 17.6497C27.1213 17.5695 27.1866 17.5046 27.2672 17.5046H28.7259C28.8065 17.5046 28.8718 17.5695 28.8718 17.6497V19.0999C28.8718 19.1801 28.8065 19.2449 28.7259 19.2449Z" fill="#254F9D"/>
<path fill-rule="evenodd" clip-rule="evenodd" d="M26.8479 14.2416H25.535C25.4545 14.2416 25.3892 14.1768 25.3892 14.0966C25.3892 14.0164 25.4545 13.9516 25.535 13.9516H26.702V13.2267C26.702 12.8267 26.3749 12.5012 25.9727 12.5012C25.892 12.5012 25.8267 12.4364 25.8267 12.3562C25.8267 12.2761 25.892 12.2112 25.9727 12.2112C26.5356 12.2112 26.9937 12.6667 26.9937 13.2267V14.0966C26.9937 14.1768 26.9284 14.2416 26.8479 14.2416Z" fill="#254F9D"/>
<path fill-rule="evenodd" clip-rule="evenodd" d="M16.6375 23.8133L16.6375 13.2264C16.6375 12.7458 17.0293 12.3562 17.5126 12.3562H25.9728C25.4894 12.3562 25.0976 12.7458 25.0976 13.2264V23.8133" fill="white"/>
</g>
<path fill-rule="evenodd" clip-rule="evenodd" d="M25.0975 23.9583C25.0169 23.9583 24.9516 23.8935 24.9516 23.8133V13.2264C24.9516 12.9426 25.0693 12.6857 25.2587 12.5012H17.5126C17.1104 12.5012 16.7832 12.8264 16.7832 13.2264V23.8133C16.7832 23.8935 16.7181 23.9583 16.6373 23.9583C16.5568 23.9583 16.4915 23.8935 16.4915 23.8133V13.2264C16.4915 12.6667 16.9496 12.2112 17.5126 12.2112H25.9727C26.0533 12.2112 26.1186 12.2761 26.1186 12.3562C26.1186 12.4364 26.0533 12.5012 25.9727 12.5012C25.5704 12.5012 25.2433 12.8264 25.2433 13.2264V23.8133C25.2433 23.8935 25.1781 23.9583 25.0975 23.9583Z" fill="#254F9D"/>
<path fill-rule="evenodd" clip-rule="evenodd" d="M23.3472 18.7012H18.3878C18.3071 18.7012 18.2419 18.6364 18.2419 18.5562C18.2419 18.4761 18.3071 18.4111 18.3878 18.4111H23.3472C23.4278 18.4111 23.4931 18.4761 23.4931 18.5562C23.4931 18.6364 23.4278 18.7012 23.3472 18.7012Z" fill="#254F9D"/>
<path fill-rule="evenodd" clip-rule="evenodd" d="M23.3472 19.7163H18.3878C18.3071 19.7163 18.2419 19.6514 18.2419 19.5713C18.2419 19.4911 18.3071 19.4263 18.3878 19.4263H23.3472C23.4278 19.4263 23.4931 19.4911 23.4931 19.5713C23.4931 19.6514 23.4278 19.7163 23.3472 19.7163Z" fill="#254F9D"/>
<path fill-rule="evenodd" clip-rule="evenodd" d="M23.3472 20.8765H18.3878C18.3071 20.8765 18.2419 20.8116 18.2419 20.7315C18.2419 20.6513 18.3071 20.5864 18.3878 20.5864H23.3472C23.4278 20.5864 23.4931 20.6513 23.4931 20.7315C23.4931 20.8116 23.4278 20.8765 23.3472 20.8765Z" fill="#254F9D"/>
<path fill-rule="evenodd" clip-rule="evenodd" d="M24.368 11.3411H24.0763C23.9956 11.3411 23.9304 11.2762 23.9304 11.1961C23.9304 11.1159 23.9956 11.051 24.0763 11.051H24.368C24.4487 11.051 24.5139 11.1159 24.5139 11.1961C24.5139 11.2762 24.4487 11.3411 24.368 11.3411Z" fill="#254F9D"/>
<path fill-rule="evenodd" clip-rule="evenodd" d="M23.4932 11.3411H18.8255C18.745 11.3411 18.6797 11.2762 18.6797 11.1961C18.6797 11.1159 18.745 11.051 18.8255 11.051H23.4932C23.5738 11.051 23.6391 11.1159 23.6391 11.1961C23.6391 11.2762 23.5738 11.3411 23.4932 11.3411Z" fill="#254F9D"/>
<path fill-rule="evenodd" clip-rule="evenodd" d="M19.1878 16.0556C19.1976 16.283 19.3153 16.4828 19.4908 16.605C19.599 16.6813 19.7294 16.727 19.8712 16.7326L20.081 16.7328L20.1977 16.7326L20.8616 16.7324V17.171L19.8853 17.1712C19.8731 17.1712 19.861 17.1707 19.8486 17.1705C19.8362 17.1701 19.8244 17.1696 19.8119 17.1687C19.8041 17.1685 19.796 17.1679 19.7879 17.1668C19.7805 17.1664 19.7734 17.1656 19.7665 17.1652C19.7648 17.1648 19.7634 17.1648 19.762 17.1644C19.7528 17.1635 19.7439 17.1623 19.7352 17.161C19.7227 17.1595 19.7101 17.1576 19.6976 17.1556C19.6881 17.1542 19.6789 17.1523 19.6698 17.1507C19.6582 17.1483 19.6466 17.1459 19.6351 17.1431C19.6106 17.1378 19.5864 17.1314 19.5624 17.1243C19.5527 17.1212 19.5433 17.1181 19.5337 17.1151C19.5224 17.1116 19.5116 17.1078 19.5006 17.1036C19.4898 17.1 19.4789 17.0959 19.4682 17.0915C19.4573 17.0875 19.447 17.0828 19.4361 17.0782C19.4045 17.0646 19.3737 17.0494 19.3436 17.0326C19.3334 17.0274 19.3235 17.0214 19.3135 17.0158C19.2989 17.0073 19.2845 16.9981 19.2702 16.9886H19.27C19.2557 16.9795 19.2415 16.9694 19.2277 16.9596C19.2185 16.9529 19.2095 16.9463 19.2004 16.9392C19.1822 16.9253 19.1648 16.911 19.1475 16.8962C19.1389 16.8885 19.1306 16.8809 19.1223 16.8736C19.1216 16.8727 19.121 16.8722 19.1204 16.8718C19.1127 16.8645 19.1049 16.8573 19.0973 16.8498C19.0892 16.8419 19.0814 16.8341 19.0735 16.8259C19.0689 16.8214 19.0648 16.8167 19.0604 16.8121C19.0577 16.8093 19.0553 16.8062 19.0524 16.8031C19.0506 16.8009 19.0485 16.7988 19.0469 16.7967C19.0335 16.7818 19.0207 16.7667 19.0087 16.7514C19.007 16.7491 19.0052 16.7473 19.0036 16.7457C18.9987 16.7394 18.9939 16.7328 18.9889 16.7264C18.9851 16.7214 18.9811 16.7158 18.9774 16.7107C18.9672 16.6969 18.9571 16.6823 18.947 16.6678C18.9469 16.6669 18.9468 16.6667 18.9466 16.6661C18.946 16.6658 18.946 16.6654 18.9457 16.6652C18.9388 16.6546 18.9321 16.6438 18.9252 16.6328C18.9115 16.6103 18.8987 16.5874 18.8864 16.5639C18.8823 16.5561 18.8786 16.5487 18.875 16.5407C18.8711 16.5334 18.8677 16.5264 18.8644 16.5189C18.8616 16.5129 18.8591 16.5068 18.8563 16.5005C18.8515 16.4894 18.8468 16.4781 18.8424 16.4669C18.8406 16.4632 18.8392 16.4592 18.8375 16.4553C18.8322 16.4413 18.8274 16.4273 18.8225 16.4129C18.8169 16.397 18.8118 16.3807 18.807 16.3644C18.8023 16.348 18.7978 16.3316 18.7941 16.3149C18.791 16.3025 18.7882 16.29 18.7858 16.2777C18.7819 16.2597 18.7786 16.2415 18.7762 16.2232C18.7762 16.2219 18.7756 16.2213 18.7754 16.22C18.7735 16.2069 18.7721 16.1941 18.7705 16.1808C18.7689 16.1677 18.7679 16.1549 18.7669 16.1422C18.7665 16.1395 18.7665 16.1374 18.7661 16.1353C18.7652 16.1228 18.7648 16.1104 18.7643 16.0978C18.7639 16.0838 18.7637 16.0697 18.7637 16.0556C18.7637 16.0419 18.7639 16.0276 18.7643 16.0136C18.7648 16.0012 18.7652 15.9887 18.7661 15.9763C18.7665 15.9742 18.7665 15.9715 18.7669 15.9694C18.7679 15.9567 18.7689 15.9439 18.7705 15.9308C18.7721 15.9175 18.7735 15.9047 18.7754 15.8915C18.7756 15.8903 18.7762 15.889 18.7762 15.8883C18.7786 15.8701 18.7819 15.8519 18.7858 15.8339C18.7882 15.8216 18.791 15.8091 18.7941 15.7966C18.7978 15.7799 18.8023 15.7635 18.807 15.7472C18.8118 15.7306 18.8169 15.7146 18.8225 15.6987C18.8274 15.6843 18.8322 15.6703 18.8375 15.6563C18.8383 15.6545 18.8392 15.6529 18.84 15.6511C18.8426 15.6436 18.8457 15.6365 18.8488 15.6293C18.851 15.6231 18.8538 15.617 18.8563 15.6111C18.8569 15.6099 18.8573 15.6088 18.8578 15.6079C18.8593 15.6044 18.8609 15.6006 18.8623 15.5972C18.8632 15.5955 18.8641 15.5941 18.8644 15.5927C18.866 15.5892 18.8677 15.5862 18.8694 15.5828C18.879 15.5623 18.8894 15.5421 18.9002 15.5218C18.9019 15.5186 18.9037 15.5154 18.9052 15.5123C18.918 15.49 18.9315 15.4682 18.9457 15.4464C18.946 15.4455 18.9468 15.4447 18.947 15.4438C18.9477 15.4431 18.9485 15.4424 18.949 15.4414C18.9656 15.4164 18.9834 15.3918 19.0019 15.3685C19.0025 15.3678 19.0031 15.3667 19.0036 15.3658C19.0043 15.3653 19.0052 15.3643 19.0058 15.3634C19.019 15.3471 19.0323 15.3313 19.0461 15.3158L19.0469 15.3149C19.0485 15.3126 19.0504 15.3105 19.0524 15.3084C19.0553 15.3053 19.0577 15.3023 19.0604 15.2994C19.0648 15.2949 19.0689 15.2904 19.0735 15.2856C19.0812 15.2775 19.089 15.2697 19.0973 15.2618C19.1049 15.2541 19.1127 15.2471 19.1204 15.2397C19.121 15.2391 19.1216 15.2382 19.1223 15.238C19.1306 15.2305 19.1389 15.2231 19.1475 15.2154C19.1648 15.2005 19.1822 15.1863 19.2004 15.1723C19.2095 15.1652 19.2185 15.1587 19.2277 15.1518C19.2415 15.1422 19.2557 15.132 19.27 15.1227H19.2702C19.2845 15.1133 19.2989 15.1043 19.3135 15.0956C19.3235 15.0902 19.3334 15.0842 19.3436 15.079C19.3737 15.0622 19.4045 15.047 19.4361 15.0333C19.447 15.0288 19.4573 15.0241 19.4682 15.02C19.4789 15.0157 19.4898 15.0115 19.5006 15.0077C19.5116 15.0038 19.5224 14.9999 19.5337 14.9963C19.5433 14.9935 19.5527 14.9904 19.5624 14.9872C19.5864 14.9801 19.6106 14.9739 19.6351 14.9683C19.6466 14.9656 19.6582 14.9633 19.6698 14.9609C19.6789 14.9593 19.6881 14.9574 19.6976 14.9558C19.7101 14.954 19.7227 14.9521 19.7352 14.9505C19.7439 14.9493 19.7528 14.948 19.762 14.9472C19.7634 14.9468 19.7648 14.9468 19.7665 14.9464C19.7734 14.946 19.7805 14.9452 19.7879 14.9448C19.796 14.9437 19.8038 14.943 19.8119 14.9428C19.8244 14.9419 19.8362 14.9413 19.8486 14.9411C19.861 14.9406 19.8731 14.9404 19.8853 14.9404H20.8616V15.3788L19.8712 15.379C19.7294 15.3845 19.599 15.4303 19.4908 15.5066C19.3153 15.6287 19.1976 15.8284 19.1878 16.0556Z" fill="#254F9D"/>
<path fill-rule="evenodd" clip-rule="evenodd" d="M23.2337 15.9677C23.2337 15.9647 23.2337 15.9615 23.2334 15.9578C23.2334 15.9509 23.2332 15.9436 23.2329 15.9369C23.2323 15.9275 23.2318 15.9181 23.231 15.9087C23.2304 15.9 23.2301 15.8929 23.2293 15.8857C23.2282 15.874 23.2271 15.862 23.2257 15.8505L23.2239 15.8363C23.205 15.6917 23.1596 15.5539 23.0912 15.4288C22.9796 15.2238 22.8068 15.0531 22.5917 14.9432L22.5894 14.9416C22.5836 14.9388 22.5784 14.9359 22.5725 14.9332C22.5656 14.9297 22.5582 14.9264 22.5513 14.923C22.543 14.9194 22.5341 14.9151 22.5257 14.9112C22.5177 14.888 22.5092 14.8652 22.5 14.8423C22.4885 14.8018 22.4751 14.762 22.4601 14.7231C22.3873 14.5361 22.2733 14.3696 22.1289 14.2346C22.1224 14.2287 22.1158 14.2228 22.1094 14.2167C21.6836 13.8401 21.0455 13.7639 20.5319 14.0716C20.4457 14.1233 20.3675 14.1831 20.2978 14.2497C20.1856 14.3558 20.0952 14.4791 20.0278 14.6129H20.5286C20.5486 14.5886 20.5698 14.5654 20.5926 14.543C20.7592 14.3813 20.9891 14.2835 21.2402 14.2835C21.3665 14.2835 21.487 14.3087 21.5967 14.3546C21.9246 14.4908 22.1565 14.8098 22.1642 15.1831C22.1685 15.206 22.1721 15.2291 22.1751 15.2524L22.2774 15.2852C22.2792 15.2856 22.2813 15.2862 22.2831 15.2872C22.3015 15.2931 22.3192 15.2997 22.3368 15.3068L22.3458 15.3109C22.352 15.3132 22.3586 15.3159 22.3652 15.3193C22.3702 15.3218 22.3744 15.324 22.3791 15.3256L22.3909 15.3321C22.4417 15.358 22.4885 15.3894 22.5311 15.425C22.6719 15.5434 22.7652 15.7105 22.7893 15.8952L22.7904 15.9036C22.7912 15.9104 22.7917 15.9181 22.7928 15.9255L22.7937 15.9395C22.7942 15.9463 22.7943 15.9522 22.7948 15.9583C22.7954 15.9632 22.7954 15.9685 22.7954 15.9736C22.7954 15.9769 22.7956 15.9805 22.7956 15.9838V16.0044C22.7954 16.0113 22.7954 16.0184 22.7948 16.0253V16.0291L22.7934 16.0513C22.7931 16.0546 22.7928 16.058 22.7923 16.0613L22.7908 16.0755C22.757 16.374 22.5407 16.6256 22.2495 16.7061C22.2475 16.7064 22.2454 16.7069 22.2429 16.7071C22.2426 16.7076 22.2423 16.7076 22.2421 16.7076C22.2407 16.7078 22.2393 16.7078 22.238 16.7081V16.7087L22.2382 16.7092V16.7095C22.1842 16.7252 22.1268 16.7333 22.0677 16.7333H21.9218H21.8208H21.5413H21.2112V17.1709H21.8208H22.0674C22.1604 17.1709 22.2508 17.1589 22.3368 17.1358C22.3378 17.1356 22.3383 17.1356 22.3395 17.1353C22.3594 17.1297 22.3794 17.1241 22.3988 17.1171C22.7964 16.9952 23.1005 16.6714 23.1991 16.275C23.2121 16.2233 23.2216 16.1702 23.2274 16.1162L23.2278 16.1104V16.1089L23.2287 16.0988C23.2301 16.0842 23.2318 16.0694 23.2323 16.0539V16.0518C23.2334 16.0312 23.2339 16.0121 23.2339 15.9925V15.9769C23.2339 15.9744 23.2337 15.9711 23.2337 15.9677Z" fill="#519DD6"/>
</svg>
