<svg width="44" height="44" viewBox="0 0 44 44" fill="none" xmlns="http://www.w3.org/2000/svg">
<g filter="url(#filter0_d_1291_1457)">
<path fill-rule="evenodd" clip-rule="evenodd" d="M9.20944 33.7598C2.11671 26.6908 2.11671 15.2296 9.20944 8.16056C16.3021 1.09166 27.8015 1.09166 34.8943 8.16056C41.9868 15.2296 41.9868 26.6908 34.8943 33.7598C27.8015 40.8289 16.3021 40.8289 9.20944 33.7598Z" fill="#DCEEF9"/>
<path d="M10.7198 37.4494C10.181 37.0809 9.65628 36.6831 9.14795 36.2561" stroke="#55C0EE" stroke-width="0.931672" stroke-linecap="round"/>
<path d="M7.05722 34.2217C0.0656616 26.3823 0.338808 14.3705 7.87696 6.85743C15.6988 -0.938152 28.3803 -0.938152 36.2021 6.85743C44.0238 14.6532 44.0238 27.2924 36.2021 35.088C30.1609 41.1091 21.2207 42.4797 13.8596 39.2" stroke="#55C0EE" stroke-width="0.931672" stroke-linecap="round"/>
<path fill-rule="evenodd" clip-rule="evenodd" d="M29.3964 24.9858L28.2764 26.0191C28.1335 26.1567 27.8943 26.0547 27.8943 25.8566V23.223C27.8943 23.2158 27.8918 23.2087 27.8918 23.2015C27.8918 23.1755 27.8871 23.1517 27.8847 23.1257C27.88 23.1042 27.8776 23.0829 27.8729 23.0616C27.868 23.0379 27.8609 23.0165 27.8538 22.9952C27.8467 22.9737 27.8395 22.9525 27.83 22.9311C27.8205 22.9097 27.8085 22.8908 27.7966 22.8695C27.7847 22.8504 27.7753 22.8314 27.761 22.8125C27.749 22.7934 27.7324 22.7768 27.7157 22.7579C27.7015 22.7413 27.6871 22.7247 27.6704 22.708L27.6204 22.6654C27.599 22.6511 27.58 22.6345 27.5585 22.6227C27.5514 22.6179 27.5467 22.6131 27.5396 22.6084L27.3324 22.4886C27.3324 22.4886 27.3324 22.4873 27.3312 22.4873L27.2646 22.4482L27.18 22.3997V22.3972H26.2422L26.9419 22.8053V28.3953C27.0277 28.361 27.1087 28.3076 27.1777 28.2388L27.4181 27.9991L29.5678 25.8589V25.1472C29.3297 25.1472 29.5822 24.8078 29.3964 24.9858Z" fill="#65C2EF"/>
<path fill-rule="evenodd" clip-rule="evenodd" d="M24.2092 28.2477V27.9565H19.8315H16.3267H16.3256H13.4041V28.2477C13.4041 29.0484 14.0614 29.7037 14.8647 29.7037C14.8647 29.7037 14.8655 29.7036 14.8659 29.7036L14.866 29.7037H25.67C24.8666 29.7037 24.2092 29.0484 24.2092 28.2477Z" fill="#65C2EF"/>
<path fill-rule="evenodd" clip-rule="evenodd" d="M27.1359 28.428C27.0593 28.428 26.9828 28.3981 26.9255 28.3388C26.8135 28.2229 26.8171 28.0386 26.9332 27.9271L29.3208 25.6357C29.4367 25.5248 29.6202 25.5274 29.7324 25.6417L30.881 26.8128C30.9939 26.9277 30.9918 27.112 30.8765 27.2246C30.761 27.3371 30.5761 27.3349 30.4633 27.2198L29.5172 26.2556L27.3387 28.3465C27.2818 28.401 27.2088 28.428 27.1359 28.428Z" fill="#254F9D"/>
<path fill-rule="evenodd" clip-rule="evenodd" d="M29.5241 26.1366C29.3627 26.1366 29.2319 26.0063 29.2319 25.8454V22.3505C29.2319 22.1897 29.3627 22.0593 29.5241 22.0593C29.6854 22.0593 29.8162 22.1897 29.8162 22.3505V25.8454C29.8162 26.0063 29.6854 26.1366 29.5241 26.1366Z" fill="#254F9D"/>
<path fill-rule="evenodd" clip-rule="evenodd" d="M27.1357 22.9477C27.0856 22.9477 27.0349 22.9348 26.9884 22.9078L25.6218 22.1105C25.0256 21.7606 24.8241 20.9925 25.1719 20.3981C25.3966 20.0161 25.8133 19.7791 26.2598 19.7791C26.4792 19.7791 26.6969 19.8376 26.8893 19.9486L29.1953 21.2947C29.578 21.5182 29.8158 21.9328 29.8158 22.3765C29.8158 22.5373 29.685 22.6676 29.5236 22.6676C29.3623 22.6676 29.2315 22.5373 29.2315 22.3765C29.2315 22.1387 29.1044 21.9166 28.8999 21.7972L26.5951 20.4518C26.4932 20.393 26.3766 20.3615 26.2598 20.3615C26.0199 20.3615 25.7961 20.4881 25.6763 20.692C25.4903 21.0097 25.5984 21.421 25.9177 21.6082L27.2836 22.4051C27.4229 22.4864 27.4697 22.6648 27.3881 22.8035C27.3337 22.8961 27.2362 22.9477 27.1357 22.9477Z" fill="#254F9D"/>
<path fill-rule="evenodd" clip-rule="evenodd" d="M29.1783 16.0179C29.017 16.0179 28.8861 15.8876 28.8861 15.7267V14.9987C28.8861 14.6408 28.6191 14.3315 28.2649 14.2793C28.2289 14.273 28.1968 14.2709 28.1557 14.2709C27.753 14.2709 27.4254 14.5974 27.4254 14.9987V15.7267C27.4254 15.8876 27.2945 16.0179 27.1332 16.0179C26.9718 16.0179 26.8411 15.8876 26.8411 15.7267V14.9987C26.8411 14.2763 27.4307 13.6885 28.1557 13.6885C28.2317 13.6885 28.2961 13.6936 28.3585 13.7046C28.989 13.7973 29.4705 14.3543 29.4705 14.9987V15.7267C29.4705 15.8876 29.3396 16.0179 29.1783 16.0179Z" fill="#254F9D"/>
<path fill-rule="evenodd" clip-rule="evenodd" d="M15.4528 28.1319C15.2915 28.1319 15.1606 28.0015 15.1606 27.8407V22.4811C15.1568 22.4625 15.1548 22.4436 15.1548 22.424V14.9987C15.1548 14.2764 15.7445 13.6885 16.4695 13.6885H27.9217C28.0831 13.6885 28.2138 13.8188 28.2138 13.9797C28.2138 14.1405 28.0831 14.2709 27.9217 14.2709H16.4695C16.0668 14.2709 15.739 14.5974 15.739 14.9987V22.3669C15.7429 22.3854 15.745 22.4044 15.745 22.424V27.8407C15.745 28.0015 15.6142 28.1319 15.4528 28.1319Z" fill="#254F9D"/>
<path fill-rule="evenodd" clip-rule="evenodd" d="M27.1332 19.7694C26.9718 19.7694 26.8411 19.6389 26.8411 19.4782V14.9987C26.8411 14.2763 27.4308 13.6885 28.1557 13.6885C28.3171 13.6885 28.4479 13.8188 28.4479 13.9797C28.4479 14.1405 28.3171 14.2709 28.1557 14.2709C27.753 14.2709 27.4254 14.5974 27.4254 14.9987V19.4782C27.4254 19.6389 27.2946 19.7694 27.1332 19.7694Z" fill="#254F9D"/>
<path fill-rule="evenodd" clip-rule="evenodd" d="M25.6725 29.9947C25.5112 29.9947 25.3804 29.8643 25.3804 29.7035C25.3804 29.5427 25.5112 29.4123 25.6725 29.4123C26.317 29.4123 26.8413 28.8899 26.8413 28.2476V22.7443C26.8413 22.5834 26.972 22.4531 27.1333 22.4531C27.2947 22.4531 27.4255 22.5834 27.4255 22.7443V28.2476C27.4255 29.2109 26.6392 29.9947 25.6725 29.9947Z" fill="#254F9D"/>
<path fill-rule="evenodd" clip-rule="evenodd" d="M29.1783 16.7314H27.2863C27.125 16.7314 26.9941 16.601 26.9941 16.4402C26.9941 16.2794 27.125 16.149 27.2863 16.149H28.8861V15.7268C28.8861 15.5661 29.017 15.4355 29.1783 15.4355C29.3396 15.4355 29.4705 15.5661 29.4705 15.7268V16.4402C29.4705 16.601 29.3396 16.7314 29.1783 16.7314Z" fill="#254F9D"/>
<path fill-rule="evenodd" clip-rule="evenodd" d="M14.8744 29.4124H24.3671C24.0889 29.1031 23.9196 28.6947 23.9196 28.2476H13.6985C13.6985 28.8882 14.22 29.4097 14.8619 29.4124C14.8663 29.4123 14.8703 29.4124 14.8744 29.4124ZM25.6726 29.9948H14.8685H14.8673C13.9007 29.9948 13.1143 29.2109 13.1143 28.2476V27.9565C13.1143 27.7957 13.2452 27.6653 13.4064 27.6653H24.2118C24.3731 27.6653 24.5039 27.7957 24.5039 27.9565V28.2476C24.5039 28.89 25.0283 29.4124 25.6726 29.4124C25.834 29.4124 25.9648 29.5427 25.9648 29.7036C25.9648 29.8644 25.834 29.9948 25.6726 29.9948Z" fill="#254F9D"/>
<path fill-rule="evenodd" clip-rule="evenodd" d="M17.7083 22.8717H17.2702C17.1088 22.8717 16.978 22.7414 16.978 22.5805C16.978 22.4197 17.1088 22.2893 17.2702 22.2893H17.7083C17.8697 22.2893 18.0005 22.4197 18.0005 22.5805C18.0005 22.7414 17.8697 22.8717 17.7083 22.8717ZM19.6074 22.8717H19.1691C19.0078 22.8717 18.877 22.7414 18.877 22.5805C18.877 22.4197 19.0078 22.2893 19.1691 22.2893H19.6074C19.7687 22.2893 19.8996 22.4197 19.8996 22.5805C19.8996 22.7414 19.7687 22.8717 19.6074 22.8717ZM21.5063 22.8717H21.0679C20.9067 22.8717 20.7758 22.7414 20.7758 22.5805C20.7758 22.4197 20.9067 22.2893 21.0679 22.2893H21.5063C21.6676 22.2893 21.7983 22.4197 21.7983 22.5805C21.7983 22.7414 21.6676 22.8717 21.5063 22.8717ZM23.4053 22.8717H22.9671C22.8057 22.8717 22.6749 22.7414 22.6749 22.5805C22.6749 22.4197 22.8057 22.2893 22.9671 22.2893H23.4053C23.5666 22.2893 23.6975 22.4197 23.6975 22.5805C23.6975 22.7414 23.5666 22.8717 23.4053 22.8717Z" fill="#254F9D"/>
<path fill-rule="evenodd" clip-rule="evenodd" d="M24.7883 24.6627H17.2702C17.1088 24.6627 16.978 24.5323 16.978 24.3715C16.978 24.2106 17.1088 24.0803 17.2702 24.0803H24.7883C24.9498 24.0803 25.0805 24.2106 25.0805 24.3715C25.0805 24.5323 24.9498 24.6627 24.7883 24.6627Z" fill="#254F9D"/>
<path fill-rule="evenodd" clip-rule="evenodd" d="M24.7882 26.3258H22.5751C22.4137 26.3258 22.283 26.1955 22.283 26.0346C22.283 25.8738 22.4137 25.7434 22.5751 25.7434H24.7882C24.9496 25.7434 25.0804 25.8738 25.0804 26.0346C25.0804 26.1955 24.9496 26.3258 24.7882 26.3258Z" fill="#254F9D"/>
<path fill-rule="evenodd" clip-rule="evenodd" d="M20.4572 26.3258H17.2702C17.1088 26.3258 16.978 26.1955 16.978 26.0346C16.978 25.8738 17.1088 25.7434 17.2702 25.7434H20.4572C20.6186 25.7434 20.7493 25.8738 20.7493 26.0346C20.7493 26.1955 20.6186 26.3258 20.4572 26.3258Z" fill="#254F9D"/>
<path fill-rule="evenodd" clip-rule="evenodd" d="M24.7883 16.9076H17.2702C17.1088 16.9076 16.978 16.7773 16.978 16.6164C16.978 16.4556 17.1088 16.3252 17.2702 16.3252H24.7883C24.9498 16.3252 25.0805 16.4556 25.0805 16.6164C25.0805 16.7773 24.9498 16.9076 24.7883 16.9076Z" fill="#254F9D"/>
<path fill-rule="evenodd" clip-rule="evenodd" d="M24.7882 18.5709H22.5751C22.4137 18.5709 22.283 18.4405 22.283 18.2797C22.283 18.1188 22.4137 17.9885 22.5751 17.9885H24.7882C24.9496 17.9885 25.0804 18.1188 25.0804 18.2797C25.0804 18.4405 24.9496 18.5709 24.7882 18.5709Z" fill="#254F9D"/>
<path fill-rule="evenodd" clip-rule="evenodd" d="M20.4572 18.5709H17.2702C17.1088 18.5709 16.978 18.4405 16.978 18.2797C16.978 18.1188 17.1088 17.9885 17.2702 17.9885H20.4572C20.6186 17.9885 20.7493 18.1188 20.7493 18.2797C20.7493 18.4405 20.6186 18.5709 20.4572 18.5709Z" fill="#254F9D"/>
<path fill-rule="evenodd" clip-rule="evenodd" d="M22.675 20.9103H21.1029C20.9415 20.9103 20.8108 20.78 20.8108 20.6191C20.8108 20.4583 20.9415 20.3279 21.1029 20.3279H22.675C22.8363 20.3279 22.9672 20.4583 22.9672 20.6191C22.9672 20.78 22.8363 20.9103 22.675 20.9103Z" fill="#254F9D"/>
<path fill-rule="evenodd" clip-rule="evenodd" d="M19.5372 20.9103H17.2702C17.1088 20.9103 16.978 20.78 16.978 20.6191C16.978 20.4583 17.1088 20.3279 17.2702 20.3279H19.5372C19.6985 20.3279 19.8294 20.4583 19.8294 20.6191C19.8294 20.78 19.6985 20.9103 19.5372 20.9103Z" fill="#254F9D"/>
</g>
<defs>
<filter id="filter0_d_1291_1457" x="0.380332" y="0.544922" width="43.3184" height="43.1849" filterUnits="userSpaceOnUse" color-interpolation-filters="sRGB">
<feFlood flood-opacity="0" result="BackgroundImageFix"/>
<feColorMatrix in="SourceAlpha" type="matrix" values="0 0 0 0 0 0 0 0 0 0 0 0 0 0 0 0 0 0 127 0" result="hardAlpha"/>
<feOffset dy="1.16459"/>
<feGaussianBlur stdDeviation="0.582295"/>
<feColorMatrix type="matrix" values="0 0 0 0 0 0 0 0 0 0 0 0 0 0 0 0 0 0 0.126202 0"/>
<feBlend mode="normal" in2="BackgroundImageFix" result="effect1_dropShadow_1291_1457"/>
<feBlend mode="normal" in="SourceGraphic" in2="effect1_dropShadow_1291_1457" result="shape"/>
</filter>
</defs>
</svg>
