<svg width="44" height="44" viewBox="0 0 44 44" fill="none" xmlns="http://www.w3.org/2000/svg">
<g filter="url(#filter0_d_25_2574)">
<path fill-rule="evenodd" clip-rule="evenodd" d="M40.278 20.9728C40.278 30.9699 32.1266 39.0742 22.0713 39.0742C12.0162 39.0742 3.86475 30.9699 3.86475 20.9728C3.86475 10.9756 12.0162 2.87134 22.0713 2.87134C32.1266 2.87134 40.278 10.9756 40.278 20.9728Z" fill="#DCEEF9"/>
<path d="M41.8313 17.2993C41.9511 17.9396 42.0401 18.5906 42.0969 19.2508" stroke="#55C0EE" stroke-width="0.931672" stroke-linecap="round"/>
<path d="M42.1322 22.1633C41.5128 32.6338 32.7761 40.9349 22.0891 40.9349C11.0003 40.9349 2.01099 31.9976 2.01099 20.9729C2.01099 9.94814 11.0003 1.01074 22.0891 1.01074C30.6537 1.01074 37.9658 6.34224 40.851 13.8491" stroke="#55C0EE" stroke-width="0.931672" stroke-linecap="round"/>
<path fill-rule="evenodd" clip-rule="evenodd" d="M19.3705 16.5722C19.3705 17.5159 18.6011 18.2809 17.6519 18.2809C16.7028 18.2809 15.9333 17.5159 15.9333 16.5722C15.9333 15.6284 16.7028 14.8635 17.6519 14.8635C18.6011 14.8635 19.3705 15.6284 19.3705 16.5722Z" fill="#519DD6"/>
<path fill-rule="evenodd" clip-rule="evenodd" d="M17.328 17.2165C17.2987 17.2165 17.2694 17.2054 17.2471 17.1831L16.599 16.5388C16.5542 16.4944 16.5542 16.4223 16.599 16.3778C16.6437 16.3333 16.7163 16.3333 16.761 16.3778L17.328 16.9415L18.4624 15.814C18.5071 15.7694 18.5796 15.7694 18.6244 15.814C18.6691 15.8584 18.6691 15.9304 18.6244 15.975L17.409 17.1831C17.3867 17.2054 17.3574 17.2165 17.328 17.2165Z" fill="#254F9D"/>
<path fill-rule="evenodd" clip-rule="evenodd" d="M17.328 17.2165C17.2987 17.2165 17.2694 17.2054 17.2471 17.1831L16.599 16.5388C16.5542 16.4944 16.5542 16.4223 16.599 16.3778C16.6437 16.3333 16.7163 16.3333 16.761 16.3778L17.328 16.9415L18.4624 15.814C18.5071 15.7694 18.5796 15.7694 18.6244 15.814C18.6691 15.8584 18.6691 15.9304 18.6244 15.975L17.409 17.1831C17.3867 17.2054 17.3574 17.2165 17.328 17.2165Z" stroke="#254F9D" stroke-width="0.465836"/>
<path fill-rule="evenodd" clip-rule="evenodd" d="M19.3705 27.4321C19.3705 28.3758 18.6011 29.1408 17.6519 29.1408C16.7028 29.1408 15.9333 28.3758 15.9333 27.4321C15.9333 26.4883 16.7028 25.7234 17.6519 25.7234C18.6011 25.7234 19.3705 26.4883 19.3705 27.4321Z" fill="#519DD6"/>
<path fill-rule="evenodd" clip-rule="evenodd" d="M17.328 28.0764C17.2987 28.0764 17.2694 28.0653 17.2471 28.043L16.599 27.3987C16.5542 27.3541 16.5542 27.2821 16.599 27.2377C16.6437 27.1932 16.7163 27.1932 16.761 27.2377L17.328 27.8014L18.4624 26.6738C18.5071 26.6292 18.5796 26.6292 18.6244 26.6738C18.6691 26.7183 18.6691 26.7903 18.6244 26.8348L17.409 28.043C17.3867 28.0653 17.3574 28.0764 17.328 28.0764Z" fill="#254F9D"/>
<path fill-rule="evenodd" clip-rule="evenodd" d="M17.328 28.0764C17.2987 28.0764 17.2694 28.0653 17.2471 28.043L16.599 27.3987C16.5542 27.3541 16.5542 27.2821 16.599 27.2377C16.6437 27.1932 16.7163 27.1932 16.761 27.2377L17.328 27.8014L18.4624 26.6738C18.5071 26.6292 18.5796 26.6292 18.6244 26.6738C18.6691 26.7183 18.6691 26.7903 18.6244 26.8348L17.409 28.043C17.3867 28.0653 17.3574 28.0764 17.328 28.0764Z" stroke="#254F9D" stroke-width="0.465836"/>
<path fill-rule="evenodd" clip-rule="evenodd" d="M19.3705 22.0022C19.3705 22.9458 18.6011 23.7109 17.6519 23.7109C16.7028 23.7109 15.9333 22.9458 15.9333 22.0022C15.9333 21.0585 16.7028 20.2935 17.6519 20.2935C18.6011 20.2935 19.3705 21.0585 19.3705 22.0022Z" fill="#519DD6"/>
<path fill-rule="evenodd" clip-rule="evenodd" d="M17.328 22.6465C17.2987 22.6465 17.2694 22.6354 17.2471 22.6131L16.599 21.9688C16.5542 21.9242 16.5542 21.8522 16.599 21.8077C16.6437 21.7632 16.7163 21.7632 16.761 21.8077L17.328 22.3714L18.4624 21.2438C18.5071 21.1993 18.5796 21.1993 18.6244 21.2438C18.6691 21.2884 18.6691 21.3604 18.6244 21.4048L17.409 22.6131C17.3867 22.6354 17.3574 22.6465 17.328 22.6465Z" fill="#254F9D"/>
<path fill-rule="evenodd" clip-rule="evenodd" d="M17.328 22.6465C17.2987 22.6465 17.2694 22.6354 17.2471 22.6131L16.599 21.9688C16.5542 21.9242 16.5542 21.8522 16.599 21.8077C16.6437 21.7632 16.7163 21.7632 16.761 21.8077L17.328 22.3714L18.4624 21.2438C18.5071 21.1993 18.5796 21.1993 18.6244 21.2438C18.6691 21.2884 18.6691 21.3604 18.6244 21.4048L17.409 22.6131C17.3867 22.6354 17.3574 22.6465 17.328 22.6465Z" stroke="#254F9D" stroke-width="0.465836"/>
<path d="M22.4102 11.499H14.6205C14.0158 11.499 13.5256 11.9864 13.5256 12.5877V31.3115C13.5256 31.9127 14.0158 32.4002 14.6205 32.4002H28.1977C28.8024 32.4002 29.2926 31.9127 29.2926 31.3115V18.9436" stroke="#254F9D" stroke-width="0.465836" stroke-linecap="round"/>
<path d="M12.2328 13.2741V12.8386" stroke="#254F9D" stroke-width="0.465836" stroke-linecap="round"/>
<path d="M12.2328 20.6766V14.145" stroke="#254F9D" stroke-width="0.465836" stroke-linecap="round"/>
<path d="M30.6066 30.2229V30.6584" stroke="#254F9D" stroke-width="0.465836" stroke-linecap="round"/>
<path d="M30.6066 22.8203V29.3519" stroke="#254F9D" stroke-width="0.465836" stroke-linecap="round"/>
<path fill-rule="evenodd" clip-rule="evenodd" d="M29.8142 13.1186C29.908 14.3 28.9237 15.2786 27.7355 15.1853C26.8007 15.1121 26.0433 14.3591 25.9695 13.4297C25.8759 12.2484 26.8601 11.2697 28.0485 11.363C28.9832 11.4362 29.7406 12.1892 29.8142 13.1186ZM28.6641 10.0272L28.5893 10.156C28.3646 10.1067 28.1318 10.0785 27.8921 10.0785C27.6524 10.0785 27.4195 10.1067 27.1948 10.156L27.1201 10.0274L26.8357 9.70552C26.6864 9.53687 26.4383 9.49628 26.2425 9.60851L25.5239 10.021C25.3282 10.1334 25.2394 10.3674 25.3118 10.5803L25.4499 10.986L25.5258 11.1167C25.2115 11.4574 24.9683 11.8636 24.8254 12.3154H24.6778L24.2554 12.3995C24.0337 12.4436 23.8743 12.637 23.8743 12.8617V13.6866C23.8743 13.9113 24.0337 14.1047 24.2554 14.1488L24.6778 14.2329H24.8254C24.9683 14.6847 25.2115 15.0909 25.5258 15.4315L25.4499 15.5623L25.3118 15.968C25.2394 16.1809 25.3282 16.4149 25.5239 16.5273L26.2425 16.9398C26.4383 17.0521 26.6864 17.0115 26.8357 16.8428L27.1201 16.5209L27.1948 16.3923C27.4195 16.4416 27.6524 16.4698 27.8921 16.4698C28.1318 16.4698 28.3646 16.4416 28.5893 16.3923L28.6641 16.5211L28.9484 16.8428C29.0977 17.0115 29.3459 17.0521 29.5415 16.9398L30.2603 16.5273C30.4559 16.4149 30.5448 16.1809 30.4723 15.968L30.3343 15.5624L30.2583 15.4315C30.5727 15.0909 30.8159 14.6848 30.9587 14.2329H31.1064L31.5287 14.1489C31.7503 14.1048 31.9098 13.9113 31.9098 13.6866V12.8617C31.9098 12.637 31.7503 12.4436 31.5287 12.3995L31.1064 12.3154H30.9587C30.8159 11.8636 30.5727 11.4574 30.2583 11.1167L30.3343 10.9859L30.4723 10.5803C30.5448 10.3674 30.4559 10.1334 30.2603 10.021L29.5415 9.60851C29.3459 9.49628 29.0977 9.53687 28.9484 9.70552L28.6641 10.0272Z" fill="#55C0EE"/>
<path d="M29.8142 13.1186L29.5821 13.137L29.5821 13.137L29.8142 13.1186ZM27.7355 15.1853L27.7537 14.9531L27.7537 14.9531L27.7355 15.1853ZM25.9695 13.4297L25.7373 13.4481L25.7373 13.4482L25.9695 13.4297ZM28.0485 11.363L28.0302 11.5952L28.0303 11.5952L28.0485 11.363ZM28.6641 10.0272L28.4896 9.87294L28.4743 9.89024L28.4627 9.91021L28.6641 10.0272ZM28.5893 10.156L28.5393 10.3835L28.7053 10.42L28.7907 10.273L28.5893 10.156ZM27.1948 10.156L26.9934 10.273L27.0788 10.42L27.2447 10.3835L27.1948 10.156ZM27.1201 10.0274L27.3215 9.91039L27.3099 9.89045L27.2946 9.87316L27.1201 10.0274ZM26.8357 9.70552L27.0102 9.55129L27.0101 9.55115L26.8357 9.70552ZM26.2425 9.60851L26.1266 9.40643L26.1265 9.40651L26.2425 9.60851ZM25.5239 10.021L25.4079 9.81899L25.4079 9.81903L25.5239 10.021ZM25.3118 10.5803L25.0912 10.6553L25.0913 10.6554L25.3118 10.5803ZM25.4499 10.986L25.2294 11.0611L25.2368 11.083L25.2485 11.103L25.4499 10.986ZM25.5258 11.1167L25.697 11.2747L25.8135 11.1483L25.7272 10.9997L25.5258 11.1167ZM24.8254 12.3154V12.5484H24.9961L25.0475 12.3856L24.8254 12.3154ZM24.6778 12.3154V12.0825H24.6549L24.6324 12.087L24.6778 12.3154ZM24.2554 12.3995L24.21 12.171L24.21 12.171L24.2554 12.3995ZM24.2554 14.1488L24.3009 13.9203L24.3008 13.9203L24.2554 14.1488ZM24.6778 14.2329L24.6323 14.4613L24.6549 14.4658H24.6778V14.2329ZM24.8254 14.2329L25.0475 14.1627L24.9961 14H24.8254V14.2329ZM25.5258 15.4315L25.7272 15.5484L25.8135 15.3998L25.697 15.2736L25.5258 15.4315ZM25.4499 15.5623L25.2484 15.4454L25.2368 15.4654L25.2294 15.4873L25.4499 15.5623ZM25.3118 15.968L25.0913 15.893L25.0912 15.8931L25.3118 15.968ZM25.5239 16.5273L25.4079 16.7293L25.4079 16.7293L25.5239 16.5273ZM26.2425 16.9398L26.1265 17.1418L26.1266 17.1419L26.2425 16.9398ZM26.8357 16.8428L27.0101 16.9972L27.0102 16.997L26.8357 16.8428ZM27.1201 16.5209L27.2946 16.6752L27.3099 16.6579L27.3215 16.6379L27.1201 16.5209ZM27.1948 16.3923L27.2447 16.1648L27.0788 16.1284L26.9934 16.2753L27.1948 16.3923ZM28.5893 16.3923L28.7907 16.2753L28.7053 16.1283L28.5393 16.1648L28.5893 16.3923ZM28.6641 16.5211L28.4627 16.6381L28.4743 16.6581L28.4896 16.6754L28.6641 16.5211ZM28.9484 16.8428L28.7739 16.9971L28.774 16.9972L28.9484 16.8428ZM29.5415 16.9398L29.6574 17.1418L29.6575 17.1418L29.5415 16.9398ZM30.2603 16.5273L30.3762 16.7293L30.3763 16.7293L30.2603 16.5273ZM30.4723 15.968L30.2518 16.043L30.2518 16.0431L30.4723 15.968ZM30.3343 15.5624L30.5548 15.4874L30.5474 15.4655L30.5357 15.4455L30.3343 15.5624ZM30.2583 15.4315L30.0871 15.2736L29.9706 15.3999L30.0569 15.5485L30.2583 15.4315ZM30.9587 14.2329V14H30.788L30.7366 14.1627L30.9587 14.2329ZM31.1064 14.2329V14.4658H31.1293L31.1518 14.4613L31.1064 14.2329ZM31.5287 14.1489L31.4833 13.9204L31.4833 13.9204L31.5287 14.1489ZM31.5287 12.3995L31.5742 12.171L31.5742 12.171L31.5287 12.3995ZM31.1064 12.3154L31.1518 12.087L31.1293 12.0825H31.1064V12.3154ZM30.9587 12.3154L30.7366 12.3856L30.788 12.5484H30.9587V12.3154ZM30.2583 11.1167L30.0569 10.9997L29.9705 11.1483L30.0871 11.2747L30.2583 11.1167ZM30.3343 10.9859L30.5357 11.1029L30.5474 11.0829L30.5548 11.0609L30.3343 10.9859ZM30.4723 10.5803L30.2518 10.5053L30.2518 10.5053L30.4723 10.5803ZM30.2603 10.021L30.3763 9.81905L30.3762 9.81898L30.2603 10.021ZM29.5415 9.60851L29.6575 9.4065L29.6574 9.40649L29.5415 9.60851ZM28.9484 9.70552L28.774 9.55115L28.7739 9.55127L28.9484 9.70552ZM29.5821 13.137C29.6643 14.1741 28.8007 15.0353 27.7537 14.9531L27.7173 15.4175C29.0466 15.5219 30.1516 14.4259 30.0464 13.1002L29.5821 13.137ZM27.7537 14.9531C26.9321 14.8888 26.2664 14.2255 26.2017 13.4113L25.7373 13.4482C25.8203 14.4927 26.6692 15.3354 27.7173 15.4175L27.7537 14.9531ZM26.2017 13.4113C26.1195 12.3743 26.983 11.513 28.0302 11.5952L28.0667 11.1308C26.7371 11.0265 25.6323 12.1225 25.7373 13.4481L26.2017 13.4113ZM28.0303 11.5952C28.8518 11.6596 29.5175 12.3228 29.5821 13.137L30.0464 13.1002C29.9637 12.0556 29.1146 11.2129 28.0666 11.1308L28.0303 11.5952ZM28.4627 9.91021L28.3879 10.0391L28.7907 10.273L28.8655 10.1442L28.4627 9.91021ZM28.6392 9.92853C28.3998 9.87595 28.1502 9.84557 27.8921 9.84557V10.3114C28.1134 10.3114 28.3294 10.3374 28.5393 10.3835L28.6392 9.92853ZM27.8921 9.84557C27.634 9.84557 27.3843 9.87595 27.1448 9.92853L27.2447 10.3835C27.4546 10.3374 27.6707 10.3114 27.8921 10.3114V9.84557ZM27.3962 10.039L27.3215 9.91039L26.9187 10.1444L26.9934 10.273L27.3962 10.039ZM27.2946 9.87316L27.0102 9.55129L26.6611 9.85974L26.9455 10.1816L27.2946 9.87316ZM27.0101 9.55115C26.7874 9.29955 26.418 9.23944 26.1266 9.40643L26.3583 9.81059C26.4586 9.75311 26.5854 9.77419 26.6612 9.85989L27.0101 9.55115ZM26.1265 9.40651L25.4079 9.81899L25.6399 10.223L26.3584 9.81052L26.1265 9.40651ZM25.4079 9.81903C25.1162 9.98659 24.9828 10.3363 25.0912 10.6553L25.5323 10.5053C25.496 10.3985 25.5402 10.2803 25.6399 10.223L25.4079 9.81903ZM25.0913 10.6554L25.2294 11.0611L25.6704 10.911L25.5323 10.5053L25.0913 10.6554ZM25.2485 11.103L25.3244 11.2337L25.7272 10.9997L25.6513 10.869L25.2485 11.103ZM25.3546 10.9588C25.0184 11.3232 24.757 11.759 24.6033 12.2452L25.0475 12.3856C25.1795 11.9681 25.4046 11.5915 25.697 11.2747L25.3546 10.9588ZM24.8254 12.0825H24.6778V12.5484H24.8254V12.0825ZM24.6324 12.087L24.21 12.171L24.3009 12.6279L24.7233 12.5439L24.6324 12.087ZM24.21 12.171C23.8802 12.2367 23.6413 12.525 23.6413 12.8617H24.1072C24.1072 12.7491 24.1872 12.6505 24.3009 12.6279L24.21 12.171ZM23.6413 12.8617V13.6866H24.1072V12.8617H23.6413ZM23.6413 13.6866C23.6413 14.0234 23.8802 14.3117 24.2101 14.3772L24.3008 13.9203C24.1872 13.8977 24.1072 13.7993 24.1072 13.6866H23.6413ZM24.2099 14.3772L24.6323 14.4613L24.7233 14.0045L24.3009 13.9203L24.2099 14.3772ZM24.6778 14.4658H24.8254V14H24.6778V14.4658ZM24.6033 14.3031C24.757 14.7893 25.0184 15.2251 25.3546 15.5894L25.697 15.2736C25.4046 14.9567 25.1795 14.5801 25.0475 14.1627L24.6033 14.3031ZM25.3243 15.3146L25.2484 15.4454L25.6513 15.6792L25.7272 15.5484L25.3243 15.3146ZM25.2294 15.4873L25.0913 15.893L25.5323 16.0431L25.6704 15.6374L25.2294 15.4873ZM25.0912 15.8931C24.9828 16.212 25.1162 16.5617 25.4079 16.7293L25.6399 16.3254C25.5402 16.2681 25.496 16.1498 25.5323 16.043L25.0912 15.8931ZM25.4079 16.7293L26.1265 17.1418L26.3584 16.7378L25.6399 16.3253L25.4079 16.7293ZM26.1266 17.1419C26.418 17.3089 26.7874 17.2488 27.0101 16.9972L26.6612 16.6884C26.5854 16.7741 26.4586 16.7952 26.3583 16.7377L26.1266 17.1419ZM27.0102 16.997L27.2946 16.6752L26.9455 16.3667L26.6611 16.6886L27.0102 16.997ZM27.3215 16.6379L27.3962 16.5093L26.9934 16.2753L26.9187 16.404L27.3215 16.6379ZM27.1448 16.6198C27.3843 16.6724 27.634 16.7028 27.8921 16.7028V16.2369C27.6707 16.2369 27.4546 16.2109 27.2447 16.1648L27.1448 16.6198ZM27.8921 16.7028C28.1502 16.7028 28.3998 16.6724 28.6392 16.6198L28.5393 16.1648C28.3294 16.2109 28.1134 16.2369 27.8921 16.2369V16.7028ZM28.3879 16.5093L28.4627 16.6381L28.8655 16.4042L28.7907 16.2753L28.3879 16.5093ZM28.4896 16.6754L28.7739 16.9971L29.1229 16.6886L28.8386 16.3669L28.4896 16.6754ZM28.774 16.9972C28.9967 17.2487 29.3662 17.3089 29.6574 17.1418L29.4256 16.7378C29.3256 16.7952 29.1987 16.7742 29.1228 16.6884L28.774 16.9972ZM29.6575 17.1418L30.3762 16.7293L30.1443 16.3253L29.4256 16.7378L29.6575 17.1418ZM30.3763 16.7293C30.6678 16.5618 30.8014 16.212 30.6928 15.893L30.2518 16.0431C30.2881 16.1498 30.244 16.2681 30.1442 16.3254L30.3763 16.7293ZM30.6928 15.893L30.5548 15.4874L30.1138 15.6374L30.2518 16.043L30.6928 15.893ZM30.5357 15.4455L30.4597 15.3145L30.0569 15.5485L30.1329 15.6794L30.5357 15.4455ZM30.4295 15.5895C30.7657 15.2251 31.0271 14.7894 31.1808 14.303L30.7366 14.1627C30.6047 14.5802 30.3796 14.9567 30.0871 15.2736L30.4295 15.5895ZM30.9587 14.4658H31.1064V14H30.9587V14.4658ZM31.1518 14.4613L31.5742 14.3773L31.4833 13.9204L31.0609 14.0044L31.1518 14.4613ZM31.5742 14.3773C31.9038 14.3118 32.1427 14.0233 32.1427 13.6866H31.6769C31.6769 13.7993 31.5967 13.8979 31.4833 13.9204L31.5742 14.3773ZM32.1427 13.6866V12.8617H31.6769V13.6866H32.1427ZM32.1427 12.8617C32.1427 12.5249 31.9038 12.2367 31.5742 12.171L31.4832 12.6279C31.5968 12.6505 31.6769 12.7491 31.6769 12.8617H32.1427ZM31.5742 12.171L31.1518 12.087L31.0609 12.5439L31.4833 12.6279L31.5742 12.171ZM31.1064 12.0825H30.9587V12.5484H31.1064V12.0825ZM31.1808 12.2453C31.0272 11.759 30.7658 11.3232 30.4295 10.9588L30.0871 11.2747C30.3795 11.5916 30.6047 11.9681 30.7366 12.3856L31.1808 12.2453ZM30.4597 11.2337L30.5357 11.1029L30.1329 10.8689L30.0569 10.9997L30.4597 11.2337ZM30.5548 11.0609L30.6928 10.6553L30.2518 10.5053L30.1138 10.9109L30.5548 11.0609ZM30.6928 10.6554C30.8014 10.3363 30.6678 9.98658 30.3763 9.81905L30.1442 10.2229C30.244 10.2803 30.2881 10.3986 30.2518 10.5053L30.6928 10.6554ZM30.3762 9.81898L29.6575 9.4065L29.4256 9.81053L30.1443 10.223L30.3762 9.81898ZM29.6574 9.40649C29.3662 9.23939 28.9967 9.29959 28.774 9.55115L29.1228 9.85989C29.1987 9.77415 29.3256 9.75317 29.4256 9.81054L29.6574 9.40649ZM28.7739 9.55127L28.4896 9.87294L28.8386 10.1814L29.1229 9.85976L28.7739 9.55127Z" fill="#254F9D"/>
<path d="M20.9463 16.5723H23.8742" stroke="#254F9D" stroke-width="0.465836" stroke-linecap="round"/>
<path d="M20.9463 22.002H27.892" stroke="#254F9D" stroke-width="0.465836" stroke-linecap="round"/>
<path d="M20.9463 27.4322H27.892" stroke="#254F9D" stroke-width="0.465836" stroke-linecap="round"/>
</g>
<defs>
<filter id="filter0_d_25_2574" x="0.380577" y="0.544922" width="43.3822" height="43.1849" filterUnits="userSpaceOnUse" color-interpolation-filters="sRGB">
<feFlood flood-opacity="0" result="BackgroundImageFix"/>
<feColorMatrix in="SourceAlpha" type="matrix" values="0 0 0 0 0 0 0 0 0 0 0 0 0 0 0 0 0 0 127 0" result="hardAlpha"/>
<feOffset dy="1.16459"/>
<feGaussianBlur stdDeviation="0.582295"/>
<feColorMatrix type="matrix" values="0 0 0 0 0 0 0 0 0 0 0 0 0 0 0 0 0 0 0.126202 0"/>
<feBlend mode="normal" in2="BackgroundImageFix" result="effect1_dropShadow_25_2574"/>
<feBlend mode="normal" in="SourceGraphic" in2="effect1_dropShadow_25_2574" result="shape"/>
</filter>
</defs>
</svg>
